M48
; DRILL file {KiCad 9.0.3} date 2026-01-13T08:46:25+0900
; FORMAT={-:-/ absolute / metric / decimal}
; #@! TF.CreationDate,2026-01-13T08:46:25+09:00
; #@! TF.GenerationSoftware,Kicad,Pcbnew,9.0.3
; #@! TF.FileFunction,Plated,1,2,PTH
FMAT,2
METRIC
; #@! TA.AperFunction,Plated,PTH,ViaDrill
T1C0.300
; #@! TA.AperFunction,Plated,PTH,ComponentDrill
T2C0.750
; #@! TA.AperFunction,Plated,PTH,ComponentDrill
T3C0.800
; #@! TA.AperFunction,Plated,PTH,ComponentDrill
T4C1.000
; #@! TA.AperFunction,Plated,PTH,ComponentDrill
T5C1.200
; #@! TA.AperFunction,Plated,PTH,ComponentDrill
T6C1.300
%
G90
G05
T1
X135.0Y-62.5
T2
X145.0Y-101.0
X145.0Y-103.0
X145.0Y-105.0
T3
X145.0Y-89.0
X147.695Y-73.19
X147.695Y-75.73
X147.695Y-78.27
X147.695Y-80.81
X155.0Y-89.0
X155.315Y-73.19
X155.315Y-75.73
X155.315Y-78.27
X155.315Y-80.81
T4
X113.72Y-57.4
X113.72Y-59.94
X113.72Y-62.48
X113.72Y-65.02
X113.72Y-67.56
X113.72Y-70.1
X113.72Y-72.64
X113.72Y-75.18
X113.72Y-77.72
X113.72Y-80.26
X113.72Y-82.8
X113.72Y-85.34
X113.72Y-87.88
X113.72Y-90.42
X113.72Y-92.96
X113.72Y-95.5
X113.72Y-98.04
X113.72Y-100.58
X113.72Y-103.12
X113.72Y-105.66
X131.5Y-57.4
X131.5Y-59.94
X131.5Y-62.48
X131.5Y-65.02
X131.5Y-67.56
X131.5Y-70.1
X131.5Y-72.64
X131.5Y-75.18
X131.5Y-77.72
X131.5Y-80.26
X131.5Y-82.8
X131.5Y-85.34
X131.5Y-87.88
X131.5Y-90.42
X131.5Y-92.96
X131.5Y-95.5
X131.5Y-98.04
X131.5Y-100.58
X131.5Y-103.12
X131.5Y-105.66
T5
X138.38Y-95.0
X139.5Y-71.88
X139.5Y-87.12
X153.62Y-95.0
T6
X140.0Y-57.495
X140.0Y-62.495
X150.0Y-59.995
M30
